<?xml version="1.0" encoding="utf-8"?>
<!-- Generator: Adobe Illustrator 24.0.1, SVG Export Plug-In . SVG Version: 6.00 Build 0)  -->
<svg version="1.1" id="圖層_1" xmlns="http://www.w3.org/2000/svg" xmlns:xlink="http://www.w3.org/1999/xlink" x="0px" y="0px"
	 viewBox="0 0 489.6 489.6" style="enable-background:new 0 0 489.6 489.6;" xml:space="preserve">
<style type="text/css">
	.st0{fill:#030301;}
</style>
<path class="st0" d="M245.7,42.8c-0.1,2.2,1.9,2.9,3.1,4.1c54.2,54.4,108.9,108.4,162.7,163.1c27.6,28.1,36.1,62.4,24,99.9
	c-12,37.2-38.8,59.4-77.2,66.4c-41.1,7.5-82.7-13.8-102.7-51.6c-0.8-1.5-0.8-3.7-3.6-4c6.4,28.3,13.4,56.1,28.6,81.1
	c11.5,18.9,27.3,33,47.5,42c1.7,0.8,3.4,1.6,6.3,3c-60.1,0-118.9,0-178.9,0c5.3-2.7,9.6-4.7,13.7-6.9c23.7-12.7,38.8-32.9,49.3-57
	c8.2-18.8,13.4-38.6,17.9-58.6c0.2-1.1,0.1-2.2,0.2-3.5c-2.1,0.9-2.3,2.7-3,4.1c-19.7,37.4-60.8,58.2-102.3,51.6
	c-41.7-6.6-74.7-39.1-81.4-81.1c-4.1-25.6,0.7-49.7,15-71.6c1.9-2.9,4.2-5.5,6.7-8c56.3-56.3,112.7-112.6,168.9-168.9
	c1.2-1.2,3.2-1.8,3-4.1C244.4,42.8,245,42.8,245.7,42.8z"/>
</svg>
