<?xml version="1.0" encoding="utf-8"?>
<!-- Generator: Adobe Illustrator 24.0.1, SVG Export Plug-In . SVG Version: 6.00 Build 0)  -->
<svg version="1.1" id="圖層_1" xmlns="http://www.w3.org/2000/svg" xmlns:xlink="http://www.w3.org/1999/xlink" x="0px" y="0px"
	 viewBox="0 0 489.6 489.6" style="enable-background:new 0 0 489.6 489.6;" xml:space="preserve">
<style type="text/css">
	.st0{fill:#030301;}
</style>
<path class="st0" d="M329,180.7c54.8-9.1,98.8,32,109.9,71c12.5,44.1-5.2,89.5-44.3,112.5c-16.2,9.5-33.7,13.9-52.5,13.4
	c-18.6-0.6-35.7-6-51.1-16.3c-15.6-10.3-27-24.2-35.7-40.8c1.9,11.8,4.6,23.2,8,34.5c4.9,16.5,11,32.4,20,47.1
	c11.8,19.4,28.1,33.5,48.9,42.6c1.2,0.5,2.4,1.1,3.6,1.7c0.1,0.1,0.1,0.3,0.3,0.7c-59.2,0-118.4,0-177.5,0c0-1.7,1.6-1.4,2.6-1.8
	c29-12.4,48-34.4,60.2-62.9c8.1-18.9,13.4-38.6,17.8-58.6c0.2-0.9,0.1-1.9,0.2-3c-1.9,0.3-1.9,1.9-2.5,3
	c-18.3,33.6-46.5,52.5-84.7,53.6c-39.1,1.1-68.4-17-88.7-50.3c-11.3-18.6-17.4-38.2-16.3-60.1c2.2-42.3,37-80.6,79.1-86.1
	c4.4-0.6,8.9-1,13.4-1.1c4.3-0.1,8.6,0.3,12.9,0.5c-12.7-46.8-0.9-85.2,40.6-112c31.4-20.3,73.1-17.5,103.4,4.7
	C323.5,92.8,344.8,132.8,329,180.7z"/>
</svg>
