<?xml version="1.0" encoding="utf-8"?>
<!-- Generator: Adobe Illustrator 24.0.1, SVG Export Plug-In . SVG Version: 6.00 Build 0)  -->
<svg version="1.1" id="圖層_1" xmlns="http://www.w3.org/2000/svg" xmlns:xlink="http://www.w3.org/1999/xlink" x="0px" y="0px"
	 viewBox="0 0 489.6 489.6" style="enable-background:new 0 0 489.6 489.6;" xml:space="preserve">
<style type="text/css">
	.st0{fill:#D01426;}
</style>
<path class="st0" d="M460.2,185c-2,1.1-1.4,3.2-1.7,4.9c-3.9,20.6-12.4,38.6-27.6,53.7c-60.9,60.4-121.4,121.2-182,182
	c-3.1,3.1-4.7,3.3-7.9,0.1c-59.7-60-119.8-119.6-179.3-179.8c-30.2-30.6-39.6-67.7-26.8-108.6c12.6-40.3,41-65.1,82.5-73.6
	c61.1-12.6,121.3,32.8,126.9,94.9c0,0.5,0.1,1,0.4,2.6c1.2-6.3,1.9-11.6,3.2-16.7c12.1-49.9,56.4-83.9,107.6-82.6
	c50.9,1.3,93.3,37.7,103,88.3c0.4,2-0.2,4.4,1.7,5.9C460.2,165.7,460.2,175.4,460.2,185z"/>
</svg>
